<svg xmlns="http://www.w3.org/2000/svg" width="71.832" height="72.126" viewBox="0 0 71.832 72.126">
  <g id="Group_18" data-name="Group 18" transform="translate(-3963.122 -2335.437)">
    <g id="Group_368" data-name="Group 368">
      <path id="Path_248" data-name="Path 248" d="M3999.037,2405.8v-3.518a23.776,23.776,0,0,0,23.749-23.749V2362.7a23.748,23.748,0,1,0-47.5,0v15.832h-3.519V2362.7a27.267,27.267,0,1,1,54.534,0v15.832A27.3,27.3,0,0,1,3999.037,2405.8Z" fill="#fff"/>
    </g>
    <g id="Group_369" data-name="Group 369">
      <path id="Path_249" data-name="Path 249" d="M3978.663,2362.756c-.341-.024-.681-.052-1.028-.052a14.513,14.513,0,0,0-14.513,14.513v2.639a14.513,14.513,0,0,0,14.513,14.513c.347,0,.687-.028,1.028-.052Z" fill="#fff"/>
    </g>
    <g id="Group_370" data-name="Group 370">
      <path id="Path_250" data-name="Path 250" d="M4019.413,2362.756c.342-.024.681-.052,1.028-.052a14.513,14.513,0,0,1,14.513,14.513v2.639a14.513,14.513,0,0,1-14.513,14.513c-.347,0-.686-.028-1.028-.052Z" fill="#fff"/>
    </g>
    <g id="Group_371" data-name="Group 371">
      <path id="Path_251" data-name="Path 251" d="M4007.833,2403.6a3.958,3.958,0,0,1-3.958,3.959H3994.2a3.958,3.958,0,0,1-3.958-3.959h0a3.958,3.958,0,0,1,3.958-3.958h9.675a3.958,3.958,0,0,1,3.958,3.958Z" fill="#fff"/>
    </g>
  </g>
</svg>
