<svg width="29" height="40" viewBox="0 0 29 40" fill="none" xmlns="http://www.w3.org/2000/svg">
<path d="M26.2374 32.6054H1.86985C0.723901 32.6054 0.0428218 31.3243 0.68066 30.3729L3.14552 27.2162V17.2378C3.14552 14.2378 4.36174 11.5297 6.3185 9.56754C7.20498 8.68105 8.24823 7.94592 9.39417 7.41078C10.7888 6.75132 12.3509 6.38916 13.9942 6.38916C15.6807 6.38916 17.2753 6.75673 18.7077 7.427C22.5834 9.20538 25.2807 13.1243 25.2807 17.6756V27.2108L27.3617 30.2865C28.1023 31.227 27.432 32.6054 26.2374 32.6054Z" fill="#FFB206"/>
<path d="M18.7505 34.8433C18.7505 37.4379 16.6478 39.5406 14.0586 39.5406C11.464 39.5406 9.36133 37.4379 9.36133 34.8433H18.7505Z" fill="#FFB206"/>
<path d="M18.7129 4.56218C17.2751 3.89191 15.6805 3.52434 13.9994 3.52434C12.3562 3.52434 10.794 3.8865 9.39941 4.54596C9.69671 2.24326 11.6697 0.459473 14.0535 0.459473C16.4427 0.459473 18.421 2.24866 18.7129 4.56218Z" fill="#FFB206"/>
</svg>
