<svg xmlns="http://www.w3.org/2000/svg" width="32.597" height="47.16" viewBox="0 0 32.597 47.16">
  <g id="Group_17" data-name="Group 17" transform="translate(-4667.132 -1552.291)">
    <g id="Group_366" data-name="Group 366">
      <path id="Path_246" data-name="Path 246" d="M4690.947,1599.451h-15.033a8.792,8.792,0,0,1-8.782-8.782v-15.532a4.336,4.336,0,0,1,4.331-4.331H4695.4a4.337,4.337,0,0,1,4.332,4.331v15.532A8.793,8.793,0,0,1,4690.947,1599.451Zm-19.484-26.972a2.662,2.662,0,0,0-2.658,2.658v15.532a7.116,7.116,0,0,0,7.109,7.108h15.033a7.115,7.115,0,0,0,7.108-7.108v-15.532a2.661,2.661,0,0,0-2.658-2.658Z" fill="#38469e"/>
    </g>
    <g id="Group_367" data-name="Group 367">
      <path id="Path_247" data-name="Path 247" d="M4695.8,1571.643h-1.674v-6.981a10.7,10.7,0,1,0-21.4,0v6.981h-1.673v-6.981a12.371,12.371,0,0,1,24.743,0Z" fill="#38469e"/>
    </g>
  </g>
</svg>
