<svg xmlns="http://www.w3.org/2000/svg" version="1.1" xmlns:xlink="http://www.w3.org/1999/xlink" xmlns:svgjs="http://svgjs.com/svgjs" width="512" height="512" x="0" y="0" viewBox="0 0 64 64" style="enable-background:new 0 0 512 512" xml:space="preserve"><g><g xmlns="http://www.w3.org/2000/svg" id="Layer_28" data-name="Layer 28"><path d="m20 18h42v40h-42z" fill="#E2E7F6" data-original="#e2e7f6"></path><path d="m56 53.781a2 2 0 0 0 2-2v-33.781h-38v35.781z" fill="#EFF2F9" data-original="#eff2f9"></path><path d="m20 18v-16h32l10 10v6z" fill="#D23F34" data-original="#d23f34"></path><path d="m57.831 13.007v-5.176l-5.831-5.831h-32v13.007h35.831a2 2 0 0 0 2-2z" fill="#E24F4B" data-original="#e24f4b"></path><path d="m32.72 58-20.261 4-10.459-52.977 18-3.417v52.394z" fill="#A72B25" data-original="#a72b25"></path><path d="m52 2v10h10" fill="#A72B25" data-original="#a72b25"></path><g fill="#EFF2F9"><path d="m29 5h-3a1 1 0 0 0 -1 1v9h2v-4h2a3 3 0 0 0 0-6zm0 4h-2v-2h2a1 1 0 0 1 0 2z" fill="#EFF2F9" data-original="#eff2f9"></path><path d="m37 5h-3a1 1 0 0 0 -1 1v8a1 1 0 0 0 1 1h3a3 3 0 0 0 3-3v-4a3 3 0 0 0 -3-3zm1 7a1 1 0 0 1 -1 1h-2v-6h2a1 1 0 0 1 1 1z" fill="#EFF2F9" data-original="#eff2f9"></path><path d="m47 7v-2h-5a1 1 0 0 0 -1 1v9h2v-4h4v-2h-4v-2z" fill="#EFF2F9" data-original="#eff2f9"></path></g><path d="m53 38v-15h-24v10h9l5 5z" fill="#F29B99" data-original="#f29b99"></path><path d="m56 40v11a2 2 0 0 1 -2 2h-26a2 2 0 0 1 -2-2v-16a2 2 0 0 1 2-2h10l5 5h11a2 2 0 0 1 2 2z" fill="#A72B25" data-original="#a72b25"></path><path d="m32 26h18v2h-18z" fill="#F8CED7" data-original="#f8ced7"></path><path d="m32 29h18v2h-18z" fill="#F8CED7" data-original="#f8ced7"></path><path d="m53 47v-9h-10l-5-5h-10a2 2 0 0 0 -2 2v14h25a2 2 0 0 0 2-2z" fill="#D23F34" data-original="#d23f34"></path></g></g></svg>