<svg xmlns="http://www.w3.org/2000/svg" width="40.126" height="48.811" viewBox="0 0 40.126 48.811">
  <g id="Group_1" data-name="Group 1" transform="translate(-4663.367 -1294.794)">
    <g id="Group_309" data-name="Group 309">
      <path id="Path_153" data-name="Path 153" d="M4703.493,1343.6h-40.126v-3.7a19.91,19.91,0,0,1,9.319-16.812,15.981,15.981,0,0,1-5.516-12.051,16.25,16.25,0,1,1,32.5,0,16.094,16.094,0,0,1-5.468,12.049,19.974,19.974,0,0,1,9.292,16.814Zm-38.013-2.113h35.9v-1.585a17.9,17.9,0,0,0-9.521-15.741l-1.463-.786,1.331-.991a14.169,14.169,0,1,0-16.558-.006l1.356.995-1.486.79a17.843,17.843,0,0,0-9.559,15.739Z" fill="#38469e"/>
    </g>
  </g>
</svg>
