<svg xmlns="http://www.w3.org/2000/svg" width="100.228" height="110.808" viewBox="0 0 100.228 110.808">
  <g id="Group_21" data-name="Group 21" transform="translate(-2845.04 -2086.23)">
    <g id="Group_384" data-name="Group 384">
      <path id="Path_262" data-name="Path 262" d="M2873.992,2181.312v6.613a6.613,6.613,0,0,1-6.613,6.613h0a6.612,6.612,0,0,1-6.613-6.613v-6.613" fill="none" stroke="#38469e" stroke-linecap="round" stroke-linejoin="round" stroke-width="5"/>
      <path id="Path_263" data-name="Path 263" d="M2929.541,2181.312v6.613a6.613,6.613,0,0,1-6.613,6.613h0a6.613,6.613,0,0,1-6.613-6.613v-6.613" fill="none" stroke="#38469e" stroke-linecap="round" stroke-linejoin="round" stroke-width="5"/>
      <path id="Path_264" data-name="Path 264" d="M2934.832,2141.422v-44.547a8.146,8.146,0,0,0-8.146-8.145h-63.065a8.146,8.146,0,0,0-8.146,8.145v44.549a.21.21,0,0,1-.21.21h0a5.08,5.08,0,0,0-5.08,5.08v29.308a5.289,5.289,0,0,0,5.29,5.29h79.357a5.29,5.29,0,0,0,5.29-5.29v-29.313a5.077,5.077,0,0,0-5.075-5.077h-.006A.21.21,0,0,1,2934.832,2141.422Z" fill="none" stroke="#38469e" stroke-linecap="round" stroke-linejoin="round" stroke-width="5"/>
      <path id="Path_265" data-name="Path 265" d="M2934.878,2109.891h-79.4l-.046,31.743h79.4Z" fill="none" stroke="#38469e" stroke-linecap="round" stroke-linejoin="round" stroke-width="5"/>
      <path id="Path_266" data-name="Path 266" d="M2870.523,2158.482c5.308,6.94-2.551,14.815-9.5,9.52C2855.717,2161.058,2863.575,2153.189,2870.523,2158.482Z" fill="none" stroke="#38469e" stroke-linecap="round" stroke-linejoin="round" stroke-width="5"/>
      <path id="Path_267" data-name="Path 267" d="M2929.471,2158.489c5.3,6.939-2.562,14.809-9.51,9.51C2914.654,2161.053,2922.534,2153.183,2929.471,2158.489Z" fill="none" stroke="#38469e" stroke-linecap="round" stroke-linejoin="round" stroke-width="5"/>
      <line id="Line_33" data-name="Line 33" x2="31.743" transform="translate(2879.282 2168.086)" fill="none" stroke="#38469e" stroke-linecap="round" stroke-linejoin="round" stroke-width="5"/>
      <line id="Line_34" data-name="Line 34" x2="31.743" transform="translate(2879.282 2160.151)" fill="none" stroke="#38469e" stroke-linecap="round" stroke-linejoin="round" stroke-width="5"/>
      <line id="Line_35" data-name="Line 35" x2="39.678" transform="translate(2873.992 2099.311)" fill="none" stroke="#38469e" stroke-linecap="round" stroke-linejoin="round" stroke-width="5"/>
      <line id="Line_36" data-name="Line 36" y2="13.226" transform="translate(2847.54 2120.472)" fill="none" stroke="#38469e" stroke-linecap="round" stroke-linejoin="round" stroke-width="5"/>
      <line id="Line_37" data-name="Line 37" y2="13.226" transform="translate(2942.767 2120.472)" fill="none" stroke="#38469e" stroke-linecap="round" stroke-linejoin="round" stroke-width="5"/>
      <line id="Line_38" data-name="Line 38" y2="31.743" transform="translate(2895.153 2109.891)" fill="none" stroke="#38469e" stroke-linecap="round" stroke-linejoin="round" stroke-width="5"/>
    </g>
  </g>
</svg>
