<svg xmlns="http://www.w3.org/2000/svg" width="93.448" height="114.259" viewBox="0 0 93.448 114.259">
  <g id="Group_24" data-name="Group 24" transform="translate(-3299.918 -1824.313)">
    <g id="Group_387" data-name="Group 387">
      <circle id="Ellipse_17" data-name="Ellipse 17" cx="28.615" cy="28.615" r="28.615" transform="translate(3318.027 1855.428)" fill="none" stroke="#38469e" stroke-linecap="round" stroke-linejoin="round" stroke-width="5"/>
      <circle id="Ellipse_18" data-name="Ellipse 18" cx="20.811" cy="20.811" r="20.811" transform="translate(3325.831 1863.232)" fill="none" stroke="#38469e" stroke-linecap="round" stroke-linejoin="round" stroke-width="5"/>
      <path id="Path_271" data-name="Path 271" d="M3338.358,1894.071a13.054,13.054,0,0,1-3.275-4.059" fill="none" stroke="#38469e" stroke-linecap="round" stroke-linejoin="round" stroke-width="5"/>
      <path id="Path_272" data-name="Path 272" d="M3333.635,1884.043a12.981,12.981,0,0,1,4.724-10.028" fill="none" stroke="#38469e" stroke-linecap="round" stroke-linejoin="round" stroke-width="5"/>
      <path id="Path_273" data-name="Path 273" d="M3338.838,1936.072v-13.007h15.608v13.007" fill="none" stroke="#38469e" stroke-linecap="round" stroke-linejoin="round" stroke-width="5"/>
      <line id="Line_50" data-name="Line 50" x2="15.608" transform="translate(3338.838 1930.869)" fill="none" stroke="#38469e" stroke-linecap="round" stroke-linejoin="round" stroke-width="5"/>
      <line id="Line_51" data-name="Line 51" y2="10.406" transform="translate(3341.439 1912.659)" fill="none" stroke="#38469e" stroke-linecap="round" stroke-linejoin="round" stroke-width="5"/>
      <line id="Line_52" data-name="Line 52" y2="10.406" transform="translate(3351.845 1912.659)" fill="none" stroke="#38469e" stroke-linecap="round" stroke-linejoin="round" stroke-width="5"/>
      <path id="Path_274" data-name="Path 274" d="M3310.223,1889.246h-7.8v-62.433h39.051a5.173,5.173,0,0,1,5.173,5.173v13.036" fill="none" stroke="#38469e" stroke-linecap="round" stroke-linejoin="round" stroke-width="5"/>
      <path id="Path_275" data-name="Path 275" d="M3383.062,1889.246h7.8v-62.433h-39.051a5.173,5.173,0,0,0-5.173,5.173v13.036" fill="none" stroke="#38469e" stroke-linecap="round" stroke-linejoin="round" stroke-width="5"/>
      <line id="Line_53" data-name="Line 53" x2="23.413" transform="translate(3312.824 1842.421)" fill="none" stroke="#38469e" stroke-linecap="round" stroke-linejoin="round" stroke-width="5"/>
      <line id="Line_54" data-name="Line 54" x2="2.601" transform="translate(3312.824 1868.435)" fill="none" stroke="#38469e" stroke-linecap="round" stroke-linejoin="round" stroke-width="5"/>
      <line id="Line_55" data-name="Line 55" x2="10.406" transform="translate(3312.824 1855.428)" fill="none" stroke="#38469e" stroke-linecap="round" stroke-linejoin="round" stroke-width="5"/>
      <path id="Path_276" data-name="Path 276" d="M3377.859,1826.813v17.5l-9.1-7.2-9.1,7.2v-17.5" fill="none" stroke="#38469e" stroke-linecap="round" stroke-linejoin="round" stroke-width="5"/>
    </g>
  </g>
</svg>
