<svg width="56" height="42" viewBox="0 0 56 42" fill="none" xmlns="http://www.w3.org/2000/svg">
<g clip-path="url(#clip0_478_208)">
<path d="M34.99 40.8343V39.1222V38.7271C34.8583 35.1713 33.5413 31.9447 31.4342 29.0473C30.9732 28.4547 30.644 27.9937 30.3806 27.5986C28.1417 24.8988 24.9151 23.4501 24.9151 23.4501C18.3302 20.0918 7.99189 21.1454 2.85566 30.2985C1.01189 33.9202 0.287547 36.62 0.0900002 40.1758C0.0241512 40.8343 0.221699 41.5586 0.946038 41.822C1.07774 41.9537 1.20943 41.9537 1.40698 41.9537H34.134C34.5949 41.9537 34.9242 41.5586 35.0559 41.0319C34.99 41.0319 34.99 40.9002 34.99 40.8343ZM3.11906 36.2249C5.02868 28.7839 10.6258 23.1868 19.8447 24.6354C27.8125 26.2817 30.9732 32.1422 32.356 39.0564C32.4219 39.2539 32.4219 39.4515 32.4219 39.649H2.39472C2.72396 38.3979 2.92151 36.9492 3.11906 36.2249ZM55.8642 39.0564C54.8764 26.4792 42.5626 17.2603 30.4464 23.516C31.1708 24.0428 31.8292 24.6354 32.4877 25.2939C36.7679 23.3843 39.5994 23.3843 42.8919 24.7013C49.1476 27.2035 51.9791 31.6154 53.2302 39.2539C53.2302 39.3856 53.2302 39.4515 53.296 39.5832H38.3483C38.4142 40.3734 38.4142 41.1635 38.3483 41.9537H55.1398C55.2715 41.9537 55.4032 41.8879 55.5349 41.6903C56.1934 41.2952 55.93 40.5051 55.8642 39.0564ZM17.4742 19.2358C22.9396 19.2358 26.8906 15.2849 26.8906 9.68769C26.8906 4.55147 22.6762 0.0737305 17.7375 0.0737305C12.2721 0.0737305 8.18944 4.28807 8.18944 9.88524C8.18944 15.2849 12.1404 19.2358 17.4742 19.2358ZM17.3425 2.90524C21.8202 2.83939 24.52 5.47335 24.5859 9.81939C24.5859 13.7703 21.6226 16.8652 17.6717 16.8652C13.8525 16.9311 10.2308 13.4411 10.2308 9.75354C10.1649 5.86845 13.2598 2.97109 17.3425 2.90524ZM38.1508 19.2358C43.6821 19.2358 47.6989 15.3507 47.6989 9.88524C47.6989 4.41977 43.6162 0.13958 38.4142 0.0737305C33.2779 0.0737305 29.0636 4.41977 29.0636 9.81939C28.9977 15.1532 32.9487 19.2358 38.1508 19.2358ZM38.3483 2.3126C42.2992 2.3126 45.3942 5.34166 45.46 9.2926C45.5259 13.1118 42.0359 16.7994 38.2825 16.7994C34.5949 16.7994 31.0391 13.046 31.1708 9.2926C31.3025 5.34166 34.3974 2.3126 38.3483 2.3126Z" fill="#1D1C1B"/>
</g>
<defs>
<clipPath id="clip0_478_208">
<rect width="56" height="42" fill="white"/>
</clipPath>
</defs>
</svg>
