<svg width="35" height="44" viewBox="0 0 35 44" fill="none" xmlns="http://www.w3.org/2000/svg">
<g clip-path="url(#clip0_519_202)">
<path d="M8.01037 -0.00241216C7.74535 -0.00443767 7.49036 0.0988222 7.30142 0.284684L0.303697 7.29022C0.210255 7.38313 0.136119 7.49359 0.0855067 7.61526C0.0348949 7.73693 0.00881404 7.8674 0.00878906 7.99917V40.9937C0.00878906 42.6384 1.36207 43.9916 3.0067 43.9916H27.0114C31.4177 43.9916 35.0052 40.4041 35.0052 35.9979C35.0052 31.9301 31.9442 28.5594 28.0075 28.0646V2.99354C28.0075 1.34891 26.6542 -0.00241216 25.0096 -0.00241216H8.01037ZM9.00642 1.9975H25.0096C25.5809 1.9975 26.0076 2.42227 26.0076 2.99354V28.0666C22.0729 28.564 19.0099 31.9322 19.0099 35.9979C19.0099 38.3837 20.0681 40.5235 21.7343 41.9898H3.0067C2.43541 41.9898 2.0087 41.565 2.0087 40.9937V8.99522H8.01037C8.27421 8.99416 8.52696 8.88889 8.71353 8.70232C8.90009 8.51576 9.00536 8.26301 9.00642 7.99917V1.9975ZM7.00651 3.4154V6.99531H3.42465L7.00651 3.4154ZM11.0083 7.99917V9.99127H23.9921V7.99917H11.0083ZM4.01056 11.9912V13.993H24.0057V11.9912H4.01056ZM4.01056 15.9929V17.9928H24.0057V15.9929H4.01056ZM4.01056 19.9928V21.9946H24.0057V19.9928H4.01056ZM4.01056 23.9945V25.9944H24.0057V23.9945H4.01056ZM4.01056 27.9963V29.9962H17.008V27.9963H4.01056ZM27.0114 29.9962C30.3369 29.9962 33.0053 32.6725 33.0053 35.9979C33.0053 39.3233 30.3369 41.9898 27.0114 41.9898C23.6861 41.9898 21.0098 39.3233 21.0098 35.9979C21.0098 32.6725 23.6861 29.9962 27.0114 29.9962ZM4.02423 31.9961V33.996H17.008V31.9961H4.02423ZM26.0076 31.9961V35.9979H24.0057V37.9978H27.0114C27.2766 37.9967 27.5306 37.8904 27.7173 37.7021C27.9041 37.5139 28.0085 37.2591 28.0075 36.9939V31.9961H26.0076ZM4.02423 35.9979V37.9978H17.008V35.9979H4.02423Z" fill="#38469E"/>
</g>
<defs>
<clipPath id="clip0_519_202">
<rect width="34.998" height="43.996" fill="white"/>
</clipPath>
</defs>
</svg>
