<svg width="56" height="56" viewBox="0 0 56 56" fill="none" xmlns="http://www.w3.org/2000/svg">
<path d="M49.706 6.29339C48.3272 4.92388 46.4627 4.15527 44.5193 4.15527C42.5759 4.15527 40.7114 4.92388 39.3326 6.29339L7.6393 37.9867C7.34202 38.2937 7.14649 38.6847 7.0793 39.1067L5.73264 48.0001C5.68843 48.285 5.70634 48.5761 5.78515 48.8534C5.86396 49.1307 6.0018 49.3878 6.18923 49.6069C6.37666 49.8259 6.60924 50.0019 6.87104 50.1227C7.13283 50.2435 7.41765 50.3063 7.70597 50.3067H8.01264L16.8926 48.9734C17.3146 48.9062 17.7057 48.7107 18.0126 48.4134L49.706 16.6667C51.0755 15.2879 51.8441 13.4234 51.8441 11.4801C51.8441 9.53669 51.0755 7.6722 49.706 6.29339ZM15.6526 45.0667L10.0926 45.9067L10.9326 40.3467L36.9593 14.3334L41.666 19.0401L15.6526 45.0667ZM46.8793 13.8401L43.5593 17.1601L38.8393 12.4401L42.1593 9.12005C42.7852 8.49414 43.6341 8.14251 44.5193 8.14251C45.4045 8.14251 46.2534 8.49414 46.8793 9.12005C47.5052 9.74597 47.8568 10.5949 47.8568 11.4801C47.8568 12.3652 47.5052 13.2141 46.8793 13.8401Z" fill="#231F20"/>
</svg>
