<svg xmlns="http://www.w3.org/2000/svg" width="75.317" height="98.757" viewBox="0 0 75.317 98.757">
  <g id="Group_22" data-name="Group 22" transform="translate(-2857.495 -1826.609)">
    <g id="Group_385" data-name="Group 385">
      <path id="Path_268" data-name="Path 268" d="M2918.593,1838.485h7.139a4.579,4.579,0,0,1,4.58,4.58v75.22a4.58,4.58,0,0,1-4.58,4.581h-61.157a4.58,4.58,0,0,1-4.58-4.581v-75.22a4.579,4.579,0,0,1,4.58-4.58h7.139" fill="none" stroke="#38469e" stroke-linecap="round" stroke-linejoin="round" stroke-width="5"/>
      <path id="Path_269" data-name="Path 269" d="M2911.561,1843.173h-32.815v-8.893a5.171,5.171,0,0,1,5.171-5.171h22.473a5.171,5.171,0,0,1,5.171,5.171Z" fill="none" stroke="#38469e" stroke-linecap="round" stroke-linejoin="round" stroke-width="5"/>
      <line id="Line_39" data-name="Line 39" x2="35.159" transform="translate(2885.778 1875.987)" fill="none" stroke="#38469e" stroke-linecap="round" stroke-linejoin="round" stroke-width="5"/>
      <line id="Line_40" data-name="Line 40" x2="35.159" transform="translate(2885.778 1857.236)" fill="none" stroke="#38469e" stroke-linecap="round" stroke-linejoin="round" stroke-width="5"/>
      <line id="Line_41" data-name="Line 41" x1="4.688" transform="translate(2871.714 1875.987)" fill="none" stroke="#38469e" stroke-linecap="round" stroke-linejoin="round" stroke-width="5"/>
      <line id="Line_42" data-name="Line 42" x1="4.688" transform="translate(2871.714 1857.236)" fill="none" stroke="#38469e" stroke-linecap="round" stroke-linejoin="round" stroke-width="5"/>
      <line id="Line_43" data-name="Line 43" x2="35.159" transform="translate(2885.778 1894.739)" fill="none" stroke="#38469e" stroke-linecap="round" stroke-linejoin="round" stroke-width="5"/>
      <line id="Line_44" data-name="Line 44" x1="4.688" transform="translate(2871.714 1894.739)" fill="none" stroke="#38469e" stroke-linecap="round" stroke-linejoin="round" stroke-width="5"/>
      <line id="Line_45" data-name="Line 45" x2="28.127" transform="translate(2885.778 1904.115)" fill="none" stroke="#38469e" stroke-linecap="round" stroke-linejoin="round" stroke-width="5"/>
      <line id="Line_46" data-name="Line 46" x2="28.127" transform="translate(2885.778 1885.363)" fill="none" stroke="#38469e" stroke-linecap="round" stroke-linejoin="round" stroke-width="5"/>
      <line id="Line_47" data-name="Line 47" x2="28.127" transform="translate(2885.778 1866.612)" fill="none" stroke="#38469e" stroke-linecap="round" stroke-linejoin="round" stroke-width="5"/>
    </g>
  </g>
</svg>
