<svg width="64" height="64" viewBox="0 0 64 64" fill="none" xmlns="http://www.w3.org/2000/svg">
<path d="M49.0781 11.6758C49.093 11.6899 49.1041 11.7074 49.1104 11.7268C49.1167 11.7463 49.1181 11.767 49.1143 11.7871L48.6387 14.5078C48.5688 14.8996 48.6106 15.3031 48.7593 15.6723C48.908 16.0414 49.1577 16.3612 49.4796 16.5951C49.8015 16.8291 50.1828 16.9676 50.5799 16.995C50.9769 17.0224 51.3736 16.9375 51.7246 16.75L54.166 15.4561C54.1841 15.4471 54.204 15.4425 54.2242 15.4427C54.2444 15.4428 54.2643 15.4477 54.2822 15.457L56.7217 16.749C57.0728 16.9355 57.4692 17.0197 57.8658 16.992C58.2623 16.9643 58.6432 16.8257 58.9649 16.5922C59.2866 16.3586 59.5362 16.0394 59.6854 15.6709C59.8346 15.3024 59.8772 14.8994 59.8086 14.5078L59.332 11.7861C59.3287 11.7663 59.3303 11.746 59.3366 11.727C59.3429 11.708 59.3537 11.6907 59.3682 11.6768L61.3516 9.75592C61.6371 9.47946 61.8394 9.12843 61.9354 8.74274C62.0313 8.35706 62.0172 7.95218 61.8945 7.57414C61.7718 7.19611 61.5455 6.86008 61.2413 6.60426C60.9371 6.34844 60.5673 6.18309 60.1738 6.12702L57.44 5.73932C57.4198 5.73663 57.4006 5.72898 57.384 5.71705C57.3675 5.70511 57.3542 5.68926 57.3453 5.67092L56.1309 3.19002C55.9577 2.83213 55.6868 2.53051 55.3495 2.31995C55.0122 2.1094 54.6222 1.99849 54.2246 2.00002H54.2236C53.8257 1.99834 53.4354 2.10917 53.0978 2.31972C52.7602 2.53027 52.489 2.83197 52.3154 3.19002L51.1016 5.67002C51.0927 5.6882 51.0795 5.70393 51.0632 5.71585C51.0468 5.72777 51.0278 5.73552 51.0078 5.73842L48.2734 6.12612C47.8798 6.18202 47.5099 6.34725 47.2055 6.603C46.9012 6.85876 46.6748 7.19479 46.552 7.57286C46.4292 7.95094 46.4149 8.35588 46.5109 8.74165C46.6068 9.12742 46.8091 9.47852 47.0947 9.75502L49.0781 11.6758ZM48.5547 8.10742L51.29 7.72002C51.6332 7.67098 51.9592 7.53872 52.2395 7.33479C52.5199 7.13085 52.7461 6.86143 52.8984 6.55002L54.1123 4.07002C54.1211 4.0481 54.1366 4.02952 54.1566 4.01695C54.1766 4.00437 54.2 3.99845 54.2236 4.00002C54.2468 3.99832 54.27 4.00402 54.2897 4.01631C54.3095 4.0286 54.3249 4.04685 54.3336 4.06842L55.5475 6.54792C55.6996 6.86001 55.9259 7.13005 56.2066 7.33434C56.4872 7.53864 56.8138 7.67096 57.1575 7.71972L59.8909 8.10742C59.9138 8.11059 59.9354 8.12013 59.9532 8.13495C59.9709 8.14978 59.9842 8.1693 59.9914 8.19129C59.9986 8.21328 59.9995 8.23685 59.994 8.25932C59.9885 8.2818 59.9768 8.30228 59.9602 8.31842L57.9766 10.24C57.7276 10.4811 57.5415 10.7794 57.4344 11.109C57.3273 11.4386 57.3025 11.7894 57.3623 12.1307L57.8379 14.8514C57.8437 14.8743 57.8421 14.8984 57.8334 14.9204C57.8246 14.9423 57.8091 14.9609 57.7891 14.9734C57.7711 14.9888 57.7487 14.9979 57.7251 14.9995C57.7015 15.0011 57.6781 14.995 57.6582 14.9822L55.2188 13.69C54.9127 13.5271 54.5712 13.4419 54.2244 13.4419C53.8776 13.4419 53.5361 13.5271 53.23 13.69L50.7886 14.9829C50.7689 14.9956 50.7456 15.0016 50.7221 15C50.6987 14.9984 50.6765 14.9893 50.6586 14.9741C50.6386 14.9616 50.6231 14.943 50.6143 14.9211C50.6056 14.8991 50.604 14.875 50.6098 14.8521L51.0854 12.1333C51.1453 11.7915 51.1205 11.4401 51.0132 11.11C50.906 10.78 50.7195 10.4812 50.4701 10.2398L48.4854 8.31842C48.4689 8.30224 48.4572 8.28177 48.4518 8.25932C48.4463 8.23686 48.4472 8.21332 48.4544 8.19137C48.4616 8.16941 48.4749 8.14991 48.4926 8.13507C48.5103 8.12024 48.5318 8.11066 48.5547 8.10742ZM43 2.00002H3C2.73478 2.00002 2.48043 2.10538 2.29289 2.29291C2.10536 2.48045 2 2.7348 2 3.00002V19C2.00001 19.1752 2.04603 19.3472 2.13344 19.499C2.22085 19.6508 2.34659 19.777 2.49808 19.8649C2.64957 19.9528 2.82149 19.9994 2.99664 19.9999C3.17179 20.0005 3.34402 19.9551 3.4961 19.8682L10.2656 16H43C43.2652 16 43.5196 15.8947 43.7071 15.7071C43.8946 15.5196 44 15.2652 44 15V3.00002C44 2.7348 43.8946 2.48045 43.7071 2.29291C43.5196 2.10538 43.2652 2.00002 43 2.00002ZM42 14H10C9.82602 14.0003 9.65509 14.0457 9.5039 14.1318L4 17.2764V4.00002H42V14Z" fill="#38469E"/>
<path d="M13 10H33C33.2652 10 33.5196 9.89464 33.7071 9.70711C33.8946 9.51957 34 9.26522 34 9C34 8.73478 33.8946 8.48043 33.7071 8.29289C33.5196 8.10536 33.2652 8 33 8H13C12.7348 8 12.4804 8.10536 12.2929 8.29289C12.1054 8.48043 12 8.73478 12 9C12 9.26522 12.1054 9.51957 12.2929 9.70711C12.4804 9.89464 12.7348 10 13 10ZM60.1738 27.127L57.44 26.7393C57.4198 26.7366 57.4006 26.729 57.384 26.717C57.3675 26.7051 57.3542 26.6892 57.3453 26.6709L56.1305 24.1909C55.9574 23.8329 55.6866 23.5311 55.3494 23.3204C55.0122 23.1097 54.6222 22.9986 54.2246 23H54.2236C53.8257 22.9983 53.4354 23.1092 53.0978 23.3197C52.7602 23.5303 52.489 23.832 52.3154 24.19L51.1016 26.67C51.0927 26.6882 51.0795 26.7039 51.0632 26.7158C51.0468 26.7278 51.0278 26.7355 51.0078 26.7384L48.2734 27.1261C47.8798 27.182 47.5099 27.3472 47.2055 27.603C46.9012 27.8587 46.6748 28.1948 46.552 28.5728C46.4292 28.9509 46.4149 29.3559 46.5109 29.7416C46.6068 30.1274 46.8091 30.4785 47.0947 30.755L49.0781 32.675C49.093 32.689 49.1041 32.7066 49.1104 32.726C49.1167 32.7455 49.1181 32.7662 49.1143 32.7863L48.6387 35.507C48.5686 35.8988 48.6103 36.3025 48.7589 36.6717C48.9076 37.041 49.1572 37.361 49.4791 37.595C49.8011 37.829 50.1825 37.9677 50.5796 37.9951C50.9767 38.0225 51.3735 37.9376 51.7246 37.75L54.166 36.4561C54.1841 36.4471 54.204 36.4425 54.2242 36.4426C54.2444 36.4428 54.2643 36.4477 54.2822 36.457L56.7217 37.749C57.0728 37.9355 57.4692 38.0197 57.8658 37.992C58.2623 37.9643 58.6432 37.8257 58.9649 37.5922C59.2866 37.3586 59.5362 37.0394 59.6854 36.6709C59.8346 36.3024 59.8772 35.8994 59.8086 35.5078L59.332 32.7861C59.3287 32.7663 59.3303 32.746 59.3366 32.727C59.3429 32.7079 59.3537 32.6907 59.3682 32.6768L61.3516 30.7559C61.6371 30.4794 61.8394 30.1284 61.9354 29.7427C62.0313 29.357 62.0172 28.9522 61.8945 28.5741C61.7718 28.1961 61.5455 27.8601 61.2413 27.6042C60.9371 27.3484 60.5673 27.1831 60.1738 27.127ZM59.9609 29.3184L57.9766 31.24C57.7276 31.481 57.5415 31.7794 57.4344 32.109C57.3273 32.4386 57.3025 32.7893 57.3623 33.1307L57.8379 35.8514C57.8437 35.8743 57.8421 35.8984 57.8334 35.9203C57.8246 35.9423 57.8091 35.9608 57.7891 35.9734C57.7711 35.9887 57.7487 35.9979 57.7251 35.9995C57.7015 36.001 57.6781 35.995 57.6582 35.9822L55.2188 34.69C54.9127 34.5271 54.5712 34.4419 54.2244 34.4419C53.8776 34.4419 53.5361 34.5271 53.23 34.69L50.7886 35.9829C50.7689 35.9956 50.7456 36.0016 50.7221 36C50.6987 35.9984 50.6765 35.9893 50.6586 35.9741C50.6386 35.9615 50.6231 35.943 50.6143 35.921C50.6056 35.8991 50.604 35.875 50.6098 35.8521L51.0854 33.1333C51.1453 32.7914 51.1205 32.4401 51.0132 32.11C50.906 31.7799 50.7195 31.4812 50.4701 31.2398L48.4858 29.3189C48.4693 29.3027 48.4576 29.2822 48.4522 29.2598C48.4467 29.2373 48.4476 29.2138 48.4548 29.1918C48.462 29.1699 48.4753 29.1504 48.493 29.1356C48.5107 29.1207 48.5322 29.1111 48.5551 29.1079L51.29 28.72C51.6332 28.671 51.9592 28.5387 52.2395 28.3348C52.5199 28.1308 52.7461 27.8614 52.8984 27.55L54.1123 25.0695C54.1212 25.0477 54.1367 25.0292 54.1567 25.0167C54.1767 25.0042 54.2001 24.9984 54.2236 25C54.2468 24.9983 54.27 25.004 54.2897 25.0163C54.3095 25.0286 54.3249 25.0468 54.3336 25.0684L55.5475 27.5479C55.6996 27.86 55.9259 28.13 56.2066 28.3343C56.4872 28.5386 56.8138 28.6709 57.1575 28.7197L59.8909 29.1074C59.9138 29.1106 59.9354 29.1201 59.9532 29.1349C59.9709 29.1498 59.9842 29.1693 59.9914 29.1913C59.9986 29.2133 59.9995 29.2368 59.994 29.2593C59.9885 29.2818 59.9775 29.3023 59.9609 29.3184ZM43 23H3C2.73478 23 2.48043 23.1054 2.29289 23.2929C2.10536 23.4804 2 23.7348 2 24V40C2.00001 40.1751 2.04603 40.3472 2.13344 40.499C2.22085 40.6508 2.34659 40.7769 2.49808 40.8648C2.64957 40.9528 2.82149 40.9993 2.99664 40.9999C3.17179 41.0005 3.34402 40.9551 3.4961 40.8682L10.2656 37H43C43.2652 37 43.5196 36.8946 43.7071 36.7071C43.8946 36.5196 44 36.2652 44 36V24C44 23.7348 43.8946 23.4804 43.7071 23.2929C43.5196 23.1054 43.2652 23 43 23ZM42 35H10C9.82602 35.0003 9.65509 35.0457 9.5039 35.1318L4 38.2764V25H42V35Z" fill="#38469E"/>
<path d="M13 31H33C33.2652 31 33.5196 30.8946 33.7071 30.7071C33.8946 30.5196 34 30.2652 34 30C34 29.7348 33.8946 29.4804 33.7071 29.2929C33.5196 29.1054 33.2652 29 33 29H13C12.7348 29 12.4804 29.1054 12.2929 29.2929C12.1054 29.4804 12 29.7348 12 30C12 30.2652 12.1054 30.5196 12.2929 30.7071C12.4804 30.8946 12.7348 31 13 31ZM60.1738 48.127L57.44 47.7393C57.4198 47.7366 57.4006 47.729 57.384 47.717C57.3675 47.7051 57.3542 47.6892 57.3453 47.6709L56.1309 45.19C55.9577 44.8321 55.6868 44.5305 55.3495 44.3199C55.0122 44.1094 54.6222 43.9985 54.2246 44H54.2236C53.8257 43.9983 53.4354 44.1092 53.0978 44.3197C52.7602 44.5303 52.489 44.832 52.3154 45.19L51.1016 47.6705C51.0927 47.6887 51.0795 47.7044 51.0632 47.7163C51.0468 47.7283 51.0278 47.736 51.0078 47.7389L48.2734 48.1266C47.8798 48.1825 47.5099 48.3477 47.2055 48.6035C46.9012 48.8592 46.6748 49.1953 46.552 49.5733C46.4292 49.9514 46.4149 50.3564 46.5109 50.7421C46.6068 51.1279 46.8091 51.479 47.0947 51.7555L49.0781 53.6755C49.093 53.6895 49.1041 53.7071 49.1104 53.7265C49.1167 53.746 49.1181 53.7667 49.1143 53.7868L48.6387 56.5075C48.5688 56.8993 48.6105 57.3029 48.7592 57.6721C48.9079 58.0412 49.1575 58.3611 49.4794 58.5951C49.8014 58.829 50.1827 58.9677 50.5798 58.995C50.9768 59.0224 51.3736 58.9375 51.7246 58.75L54.166 57.4561C54.1841 57.4471 54.204 57.4425 54.2242 57.4426C54.2444 57.4428 54.2643 57.4477 54.2822 57.457L56.7217 58.749C57.0728 58.9355 57.4692 59.0197 57.8658 58.992C58.2623 58.9643 58.6432 58.8257 58.9649 58.5922C59.2866 58.3586 59.5362 58.0394 59.6854 57.6709C59.8346 57.3024 59.8772 56.8994 59.8086 56.5078L59.332 53.7861C59.3287 53.7663 59.3303 53.746 59.3366 53.727C59.3429 53.7079 59.3537 53.6907 59.3682 53.6768L61.3516 51.7559C61.6371 51.4794 61.8394 51.1284 61.9354 50.7427C62.0313 50.357 62.0172 49.9522 61.8945 49.5741C61.7718 49.1961 61.5455 48.8601 61.2413 48.6042C60.9371 48.3484 60.5673 48.1831 60.1738 48.127ZM59.9609 50.3184L57.9766 52.24C57.7276 52.481 57.5415 52.7794 57.4344 53.109C57.3273 53.4386 57.3025 53.7893 57.3623 54.1307L57.8379 56.8514C57.8437 56.8743 57.8421 56.8984 57.8334 56.9203C57.8246 56.9423 57.8091 56.9608 57.7891 56.9734C57.7711 56.9887 57.7487 56.9979 57.7251 56.9995C57.7015 57.001 57.6781 56.995 57.6582 56.9822L55.2188 55.69C54.9127 55.5271 54.5712 55.4419 54.2244 55.4419C53.8776 55.4419 53.5361 55.5271 53.23 55.69L50.7886 56.9829C50.7689 56.9956 50.7456 57.0016 50.7221 57C50.6987 56.9984 50.6765 56.9893 50.6586 56.9741C50.6386 56.9615 50.6231 56.943 50.6143 56.921C50.6056 56.8991 50.604 56.875 50.6098 56.8521L51.0854 54.1333C51.1453 53.7914 51.1205 53.4401 51.0132 53.11C50.906 52.7799 50.7195 52.4812 50.4701 52.2398L48.4858 50.3189C48.4693 50.3027 48.4576 50.2822 48.4522 50.2598C48.4467 50.2373 48.4476 50.2138 48.4548 50.1918C48.462 50.1699 48.4753 50.1504 48.493 50.1356C48.5107 50.1207 48.5322 50.1111 48.5551 50.1079L51.29 49.72C51.6332 49.671 51.9592 49.5387 52.2395 49.3348C52.5199 49.1308 52.7461 48.8614 52.8984 48.55L54.1123 46.07C54.1211 46.0481 54.1366 46.0295 54.1566 46.0169C54.1766 46.0044 54.2 45.9984 54.2236 46C54.2468 45.9983 54.27 46.004 54.2897 46.0163C54.3095 46.0286 54.3249 46.0468 54.3336 46.0684L55.5475 48.5479C55.6996 48.86 55.9259 49.13 56.2066 49.3343C56.4872 49.5386 56.8138 49.6709 57.1575 49.7197L59.8909 50.1074C59.9138 50.1106 59.9354 50.1201 59.9532 50.1349C59.9709 50.1498 59.9842 50.1693 59.9914 50.1913C59.9986 50.2133 59.9995 50.2368 59.994 50.2593C59.9885 50.2818 59.9775 50.3023 59.9609 50.3184ZM43 44H3C2.73478 44 2.48043 44.1054 2.29289 44.2929C2.10536 44.4804 2 44.7348 2 45V61C2.00001 61.1751 2.04603 61.3472 2.13344 61.499C2.22085 61.6508 2.34659 61.7769 2.49808 61.8648C2.64957 61.9528 2.82149 61.9993 2.99664 61.9999C3.17179 62.0005 3.34402 61.9551 3.4961 61.8682L10.2656 58H43C43.2652 58 43.5196 57.8946 43.7071 57.7071C43.8946 57.5196 44 57.2652 44 57V45C44 44.7348 43.8946 44.4804 43.7071 44.2929C43.5196 44.1054 43.2652 44 43 44ZM42 56H10C9.82602 56.0003 9.65509 56.0457 9.5039 56.1318L4 59.2764V46H42V56Z" fill="#38469E"/>
<path d="M13 52H33C33.2652 52 33.5196 51.8946 33.7071 51.7071C33.8946 51.5196 34 51.2652 34 51C34 50.7348 33.8946 50.4804 33.7071 50.2929C33.5196 50.1054 33.2652 50 33 50H13C12.7348 50 12.4804 50.1054 12.2929 50.2929C12.1054 50.4804 12 50.7348 12 51C12 51.2652 12.1054 51.5196 12.2929 51.7071C12.4804 51.8946 12.7348 52 13 52Z" fill="#38469E"/>
</svg>
